<?xml version="1.0" encoding="utf-8"?>
<!-- Generator: Adobe Illustrator 27.5.0, SVG Export Plug-In . SVG Version: 6.00 Build 0)  -->
<svg version="1.1" id="Layer_1" xmlns="http://www.w3.org/2000/svg" xmlns:xlink="http://www.w3.org/1999/xlink" x="0px" y="0px"
	 viewBox="0 0 52.1 58.6" style="enable-background:new 0 0 52.1 58.6;" xml:space="preserve">
<style type="text/css">
	.st0{fill:#FFFFFF;}
	.st1{fill:url(#SVGID_1_);}
	.st2{clip-path:url(#SVGID_00000157288266651276241560000010271211393080973196_);}
	.st3{clip-path:url(#SVGID_00000061462339671104167100000014102241299574057914_);}
	.st4{clip-path:url(#SVGID_00000008135247402992765920000017634741135028791742_);}
	.st5{clip-path:url(#SVGID_00000061437652589534630210000009075098872233824695_);}
	.st6{clip-path:url(#SVGID_00000129909201124158531820000005056275255619503801_);}
	.st7{clip-path:url(#SVGID_00000059989620361241856040000012367077415054048191_);}
	.st8{clip-path:url(#SVGID_00000108999625680223499250000002959059866632361144_);}
	.st9{clip-path:url(#SVGID_00000031929120277345715830000002196278269476988842_);}
	.st10{clip-path:url(#SVGID_00000138568362508340283080000007722749482174440354_);}
	.st11{clip-path:url(#SVGID_00000003079513977415232480000008628247178872874895_);}
	
		.st12{clip-path:url(#SVGID_00000097490266275194094170000005498360861868076985_);fill:#D43060;stroke:#FFFFFF;stroke-width:0.25;stroke-miterlimit:10;}
	.st13{fill:#1D1D1B;}
</style>
<g id="triangle_x5F_9_1_">
	<path class="st0" d="M218.6,102.9L218.6,102.9l-10.7-10.4l0,0l12.9-17.5l0,0.2L218.6,102.9z M208,92.4l10.5,10.2l2.2-27.4L208,92.4
		z"/>
</g>
<g>
	<path class="st0" d="M222.6,117.4h-9.1l5-14.8L222.6,117.4z M213.6,117.3h8.8l-4-14.3L213.6,117.3z"/>
</g>
<g id="triangle_x5F_32_1_">
	<path class="st0" d="M207.9,92.5L207.9,92.5l-15.1-20.3l0.1,0l27.8,2.8L207.9,92.5z M193.1,72.4l14.9,20l12.7-17.2L193.1,72.4z"/>
</g>
<g id="triangle_x5F_33_1_">
	<path class="st0" d="M189.2,95.3L189.2,95.3l3.8-23.1l0.1,0.1l15,20.2L189.2,95.3z M193,72.4l-3.7,22.7l18.6-2.8L193,72.4z"/>
</g>
<g id="triangle_x5F_37_1_">
	<path class="st0" d="M220.8,75.2l-0.1,0l-27.8-2.8l12-21.7L220.8,75.2z M193,72.3l27.6,2.8l-15.8-24.2L193,72.3z"/>
</g>
<g id="triangle_x5F_41_1_">
	<path class="st0" d="M220.7,75.1l-15.9-24.4l13.3-1.1L220.7,75.1L220.7,75.1z M204.9,50.8l15.7,24.1L218,49.7L204.9,50.8z"/>
</g>
<g id="triangle_x5F_52_1_">
	<path class="st0" d="M220.7,75.2L218,49.6l17.1,2L220.7,75.2z M218.1,49.7l2.6,25.2L235,51.7L218.1,49.7z"/>
</g>
<g id="triangle_x5F_53_1_">
	<path class="st0" d="M235.1,51.7l-17.1-2l12.7-16.1l0,0.1L235.1,51.7z M218.2,49.6l16.8,1.9l-4.4-17.7L218.2,49.6z"/>
</g>
<g id="triangle_x5F_55_1_">
	<path class="st0" d="M220.6,75.2L235,51.5l0,0.1l8.6,15.1l-0.1,0L220.6,75.2z M235,51.7L220.8,75l22.7-8.3L235,51.7z"/>
</g>
<g id="triangle_x5F_65_1_">
	<path class="st0" d="M218.5,102.9l2.2-28l10.2,15.2l0,0L218.5,102.9z M220.8,75.2l-2.2,27.4l12.2-12.5L220.8,75.2z"/>
</g>
<g id="triangle_x5F_66_1_">
	<path class="st0" d="M230.9,90.3L230.9,90.3l-10.2-15.2l0.1,0l23-8.4l-0.1,0.1L230.9,90.3z M220.8,75.1l10.1,15l12.7-23.3
		L220.8,75.1z"/>
</g>
<g id="triangle_x5F_67_1_">
	<path class="st0" d="M243.9,90.8l-13.1-0.6l0-0.1l12.9-23.7L243.9,90.8z M230.9,90.1l12.9,0.6l-0.2-23.8L230.9,90.1z"/>
</g>
<g>
	<path class="st0" d="M227.4,117.4h-4.9l0,0l-4-14.6l12.5-12.7L227.4,117.4z M222.6,117.3h4.7l3.5-26.9l-12.2,12.5L222.6,117.3z"/>
</g>
<g>
	<path class="st0" d="M247.5,117.4H244l0,0l-13.3-27.2l0.1,0l13,0.6l0,0L247.5,117.4z M244.1,117.3h3.3l-3.6-26.5l-12.9-0.6
		L244.1,117.3z"/>
</g>
<g>
	<path class="st0" d="M244.1,117.4h-16.9l0-0.1l3.6-27.3L244.1,117.4z M227.4,117.3H244l-13.1-26.9L227.4,117.3z"/>
</g>
<g>
	<path class="st0" d="M247.1,7.8l0.9-4.7l0.1,0v4.6L247.1,7.8z M248,3.6l-0.8,4l0.8-0.1V3.6z"/>
</g>
<g>
	<path class="st0" d="M243.6,66.8L243.6,66.8L235,51.6l13.1-3.1l0,8.9L243.6,66.8z M235.1,51.6l8.5,15l4.4-9.3v-8.7L235.1,51.6z"/>
</g>
<g>
	<path class="st0" d="M248.1,117.4h-0.7l0,0l-3.6-26.7l4.3,5.1V117.4z M247.5,117.3h0.5V95.7l-4.1-4.8L247.5,117.3z"/>
</g>
<g>
	<path class="st0" d="M248.1,95.8l-4.3-5.1l4.3-1.5V95.8z M243.9,90.8l4.1,4.8v-6.2L243.9,90.8z"/>
</g>
<g>
	<path class="st0" d="M248.1,7.9l-0.9-0.1V7.7l0.9-0.1V7.9z M247.5,7.7l0.5,0.1V7.7L247.5,7.7z"/>
</g>
<g>
	<path class="st0" d="M128.2,50.2L128.2,50.2l0.3-52.9h1l5.3,26.6l0,0L128.2,50.2z M128.6-2.5l-0.4,52.3l6.5-25.9l-5.3-26.5H128.6z"
		/>
</g>
<g id="triangle_x5F_327_1_">
	<path class="st0" d="M128.1,50.4l6.7-26.5l0.1,0l14.2,6.7l-0.1,0.1L128.1,50.4z M134.8,24l-6.6,26.1l20.5-19.4L134.8,24z"/>
</g>
<g id="triangle_x5F_331_1_">
	<path class="st0" d="M173.6,48.6l-9.2-6l0,0l3.3-21l0.1,0L173.6,48.6z M164.6,42.6l8.9,5.8L167.9,22L164.6,42.6z"/>
</g>
<g id="triangle_x5F_332_1_">
	<path class="st0" d="M164.6,42.8l-15.8-12.1l19.1-9l0,0.1L164.6,42.8z M149,30.7l15.5,11.9l3.3-20.8L149,30.7z"/>
</g>
<g id="triangle_x5F_341_1_">
	<path class="st0" d="M218.7,102.9l-9.4-1.7l0,0l-1.3-8.8L218.7,102.9z M209.3,101.1l9.1,1.6L208,92.6L209.3,101.1z"/>
</g>
<g>
	<path class="st0" d="M213.6,117.4h-4.7l0-0.1l0.3-16.3l9.4,1.7L213.6,117.4z M209,117.3h4.6l4.9-14.5l-9.1-1.7L209,117.3z"/>
</g>
<g>
	<path class="st0" d="M184.3,117.4h-4.9l5.5-3.2L184.3,117.4z M179.8,117.3h4.4l0.5-2.9L179.8,117.3z"/>
</g>
<g id="triangle_x5F_353_1_">
	<path class="st0" d="M184.8,114.3l-10.7-12.7l0.1,0l15.1-6.5l0,0.1L184.8,114.3z M174.3,101.7l10.5,12.5l4.4-18.8L174.3,101.7z"/>
</g>
<g>
	<path class="st0" d="M169.5,117.4h-3.4l-2.5-17.4l0.1,0l10.6,1.7L169.5,117.4z M166.2,117.3h3.2l4.8-15.6l-10.5-1.7L166.2,117.3z"
		/>
</g>
<g>
	<path class="st0" d="M179.6,117.4h-10.2l0-0.1l4.8-15.7l0.1,0.1l10.6,12.6L179.6,117.4z M169.5,117.3h10.1l5.2-3l-10.5-12.5
		L169.5,117.3z"/>
</g>
<g id="triangle_x5F_356_1_">
	<path class="st0" d="M204.8,50.8L204.8,50.8l-3.6-14.2l17,13L204.8,50.8z M201.4,36.9l3.5,13.8l13-1.1L201.4,36.9z"/>
</g>
<g id="triangle_x5F_365_1_">
	<path class="st0" d="M235,51.8l-4.5-18.1l11.8-0.8l0,0.1L235,51.8z M230.7,33.8l4.4,17.7l7.2-18.5L230.7,33.8z"/>
</g>
<g>
	<path class="st0" d="M235,51.7l7.3-18.9l5.8,8.1v7.6l0,0L235,51.7z M242.3,33l-7.2,18.6l12.9-3.1v-7.5L242.3,33z"/>
</g>
<g id="triangle_x5F_369_1_">
	<path class="st0" d="M230.6,33.8l1.1-11.6l10.7,10.8L230.6,33.8z M231.8,22.4l-1.1,11.3l11.5-0.8L231.8,22.4z"/>
</g>
<g id="triangle_x5F_370_1_">
	<path class="st0" d="M242.3,33L242.3,33l-10.7-10.7l15.6-14.7L242.3,33z M231.8,22.3l10.5,10.5l4.8-24.9L231.8,22.3z"/>
</g>
<g>
	<path class="st0" d="M208.3,5l-0.1,0L188,0.5l2.1-3.1h13l0,0L208.3,5z M188.2,0.4L208,4.8l-5-7.4h-12.9L188.2,0.4z"/>
</g>
<g>
	<path class="st0" d="M213.7,14.6l-5.6-9.7l0,0l4.7-7.5h3.7l0,0.1L213.7,14.6z M208.2,4.9l5.4,9.4l2.8-16.8h-3.5L208.2,4.9z"/>
</g>
<g>
	<path class="st0" d="M208.2,5L203-2.6h10L208.2,5z M203.2-2.5l5,7.4l4.6-7.4H203.2z"/>
</g>
<g id="triangle_x5F_381_1_">
	<path class="st0" d="M201.4,36.9l-10-4.8l7.4-15.9L201.4,36.9z M191.5,32l9.8,4.7l-2.6-20.1L191.5,32z"/>
</g>
<g id="triangle_x5F_382_1_">
	<path class="st0" d="M201.3,37l-2.7-20.6l0,0l15.1-2L201.3,37z M198.7,16.4l2.6,20.2l12.2-22.1L198.7,16.4z"/>
</g>
<g id="triangle_x5F_384_1_">
	<path class="st0" d="M198.7,16.5L198.7,16.5L188,0.4l20.2,4.5L208.2,5L198.7,16.5z M188.2,0.5l10.5,15.8L208.1,5L188.2,0.5z"/>
</g>
<g id="triangle_x5F_385_1_">
	<path class="st0" d="M198.6,16.5l9.6-11.6l5.6,9.6L198.6,16.5z M208.2,5l-9.3,11.3l14.8-1.9L208.2,5z"/>
</g>
<g id="triangle_x5F_386_1_">
	<path class="st0" d="M173.6,48.6L173.6,48.6l9.2-28.1l0.1,0.1l8.6,11.5l0,0L173.6,48.6z M182.8,20.7l-9.2,27.7L191.4,32L182.8,20.7
		z"/>
</g>
<g id="triangle_x5F_387_1_">
	<path class="st0" d="M173.6,48.7l-5.8-27.1l15.1-1.1l0,0.1L173.6,48.7z M167.9,21.7l5.7,26.6l9.2-27.7L167.9,21.7z"/>
</g>
<g id="triangle_x5F_389_1_">
	<path class="st0" d="M191.4,32.1l-8.7-11.6l16-4.2l0,0.1L191.4,32.1z M182.9,20.6l8.5,11.3l7.2-15.5L182.9,20.6z"/>
</g>
<g id="triangle_x5F_390_1_">
	<path class="st0" d="M182.8,20.6L182.8,20.6l5.3-20.3l10.7,16.1L182.8,20.6z M188.1,0.6l-5.2,19.9l15.7-4.2L188.1,0.6z"/>
</g>
<g id="triangle_x5F_393_1_">
	<path class="st0" d="M171.6,72.1l-9.4-2.8l11.3-20.7l0.1,0L171.6,72.1z M162.4,69.2l9.1,2.8l2-23.2L162.4,69.2z"/>
</g>
<g id="triangle_x5F_403_1_">
	<path class="st0" d="M156.3,54.5l8.3-11.9l9.2,6l-0.1,0L156.3,54.5z M164.6,42.7l-8,11.6l16.9-5.8L164.6,42.7z"/>
</g>
<g id="triangle_x5F_404_1_">
	<path class="st0" d="M162.3,69.3l-6-15l17.4-5.9L162.3,69.3z M156.5,54.4l5.9,14.7l11.1-20.5L156.5,54.4z"/>
</g>
<g id="triangle_x5F_407_1_">
	<path class="st0" d="M156.4,54.5L156.4,54.5l-7.6-24l15.8,12.1L156.4,54.5z M149,30.8l7.4,23.5l8.1-11.6L149,30.8z"/>
</g>
<g id="triangle_x5F_408_1_">
	<path class="st0" d="M142,72.1l14.5-17.8l6,15l-0.1,0L142,72.1z M156.4,54.5L142.2,72l20.1-2.8L156.4,54.5z"/>
</g>
<g id="triangle_x5F_421_1_">
	<path class="st0" d="M128.1,117.1l0.1-0.1l14.6-25.3l3.3,20.9L128.1,117.1z M142.7,92L128.3,117l17.7-4.4L142.7,92z"/>
</g>
<g>
	<path class="st0" d="M144.9,117.4h-16.6l-0.2-0.4l0.1,0l17.9-4.5L144.9,117.4z M128.4,117.3h16.5l1.2-4.6l-17.7,4.4L128.4,117.3z"
		/>
</g>
<g>
	<path class="st0" d="M147.1,117.4h-2.3l1.2-4.8l0.1,0L147.1,117.4z M144.9,117.3h2.1l-1-4.5L144.9,117.3z"/>
</g>
<g id="triangle_x5F_426_1_">
	<path class="st0" d="M171.5,72.1l0-0.1l2-23.7l7.4,16.1L171.5,72.1z M173.6,48.7l-2,23.2l9.1-7.4L173.6,48.7z"/>
</g>
<g id="triangle_x5F_430_1_">
	<path class="st0" d="M189.2,95.3L189.2,95.3l-7.8-9.6l0,0L193,72.1L189.2,95.3z M181.6,85.7l7.6,9.4l3.7-22.6L181.6,85.7z"/>
</g>
<g id="triangle_x5F_431_1_">
	<path class="st0" d="M174.1,101.8l0.1-0.1l7.3-16l7.8,9.6l-0.1,0L174.1,101.8z M181.5,85.8l-7.2,15.7l14.8-6.4L181.5,85.8z"/>
</g>
<g id="triangle_x5F_434_1_">
	<path class="st0" d="M181.5,85.9l0-0.1l-0.7-21.3l0.1,0.1l12.2,7.9L181.5,85.9z M180.9,64.6l0.7,21l11.3-13.3L180.9,64.6z"/>
</g>
<g id="triangle_x5F_435_1_">
	<path class="st0" d="M181.6,85.9l-0.1-0.1L171.5,72l0,0l9.3-7.6l0,0.1L181.6,85.9z M171.7,72l9.8,13.5l-0.7-21L171.7,72z"/>
</g>
<g>
	<path class="st0" d="M248.1,70.4l-4.5-3.7l4.4-9.5l0.1,0V70.4z M243.7,66.7l4.3,3.5V57.5L243.7,66.7z"/>
</g>
<g>
	<path class="st0" d="M243.8,90.9l-0.2-24.3l4.5,3.6v13.4l0,0L243.8,90.9z M243.7,66.8l0.2,23.8l4.1-7V70.3L243.7,66.8z"/>
</g>
<g>
	<path class="st0" d="M243.7,90.8l4.3-7.4v6L243.7,90.8z M248,83.8l-4,6.9l4-1.4V83.8z"/>
</g>
<g>
	<path class="st0" d="M248.1,41.1l-5.9-8.2l5.9-0.1V41.1z M242.4,32.9l5.6,7.8v-8L242.4,32.9z"/>
</g>
<g>
	<path class="st0" d="M248,11.2l-0.9-3.5l1,0.1L248,11.2L248,11.2z M247.2,7.8l0.8,3V7.9L247.2,7.8z"/>
</g>
<g>
	<path class="st0" d="M242.2,32.9L242.2,32.9l4.9-25.2l0.1,0l0.9,3.5v21.6L242.2,32.9z M247.2,7.9l-4.8,24.9l5.6-0.1V11.2L247.2,7.9
		z"/>
</g>
<g id="triangle_x5F_462_1_">
	<path class="st0" d="M218,49.8l2-15.6l10.7-0.6L218,49.8z M220.1,34.3l-2,15.2l12.4-15.7L220.1,34.3z"/>
</g>
<g id="triangle_x5F_463_1_">
	<path class="st0" d="M201.2,36.9L201.2,36.9l12.4-22.6l6.4,20L201.2,36.9z M213.7,14.6l-12.2,22.2l18.6-2.5L213.7,14.6z"/>
</g>
<g id="triangle_x5F_464_1_">
	<path class="st0" d="M218.1,49.7l-16.9-13l18.9-2.5l0,0.1L218.1,49.7z M201.5,36.8L218,49.6l2-15.2L201.5,36.8z"/>
</g>
<g id="triangle_x5F_465_1_">
	<path class="st0" d="M219.9,34.3l11.9-12.2l0,0.1l-1.1,11.5l0,0L219.9,34.3z M231.7,22.4l-11.5,11.8l10.4-0.6L231.7,22.4z"/>
</g>
<g id="triangle_x5F_466_1_">
	<path class="st0" d="M220,34.4l-6.4-20l18.2,7.9L220,34.4z M213.8,14.5l6.3,19.7l11.6-11.9L213.8,14.5z"/>
</g>
<g id="triangle_x5F_470_1_">
	<path class="st0" d="M148.8,30.8l11.8-17.3l7.4,8.2L148.8,30.8z M160.6,13.7L149,30.5l18.7-8.8L160.6,13.7z"/>
</g>
<g id="triangle_x5F_475_1_">
	<path class="st0" d="M157.3,92.5L157.3,92.5L142,72l0.1,0l20.3-2.8l0,0.1L157.3,92.5z M142.2,72.1l15.1,20.3l5-23L142.2,72.1z"/>
</g>
<g id="triangle_x5F_476_1_">
	<path class="st0" d="M157.4,92.5l-14.7-0.6l0,0l-0.7-20L157.4,92.5z M142.8,91.8l14.4,0.6l-15-20.2L142.8,91.8z"/>
</g>
<g id="triangle_x5F_477_1_">
	<path class="st0" d="M146,112.7l-3.3-20.9l14.7,0.6l0,0.1L146,112.7z M142.8,91.9l3.3,20.5l11.1-19.9L142.8,91.9z"/>
</g>
<g id="triangle_x5F_478_1_">
	<path class="st0" d="M146.1,112.6L146.1,112.6l11.2-20.3l6.5,7.6L146.1,112.6z M157.3,92.5l-11.1,19.9l17.4-12.4L157.3,92.5z"/>
</g>
<g id="triangle_x5F_479_1_">
	<path class="st0" d="M139,62.3L139,62.3l-10.9-12.1l0,0L149,30.5L139,62.3z M128.3,50.2L139,62.1l9.8-31.3L128.3,50.2z"/>
</g>
<g id="triangle_x5F_480_1_">
	<path class="st0" d="M138.9,62.3l10-31.9l7.6,24l0,0L138.9,62.3z M148.9,30.8l-9.8,31.3l17.3-7.8L148.9,30.8z"/>
</g>
<g id="triangle_x5F_482_1_">
	<path class="st0" d="M142.1,72.1l-3.1-9.9l0,0l17.4-7.8l0.1,0.1L142.1,72.1z M139,62.3l3,9.7l14.1-17.4L139,62.3z"/>
</g>
<g id="triangle_x5F_483_1_">
	<path class="st0" d="M128.2,117h-0.1V50.2h0.1l0.2,34.4L128.2,117z M128.2,65.8v36.5l0.1-17.7L128.2,65.8z"/>
</g>
<g id="triangle_x5F_484_1_">
	<path class="st0" d="M128.1,117.2l0.2-32.7l0.1,0l14.4,7.3L128.1,117.2z M128.5,84.7l-0.2,32.2l14.4-25L128.5,84.7z"/>
</g>
<g id="triangle_x5F_485_1_">
	<path class="st0" d="M142.8,92L142.8,92l-14.5-7.3l0.1,0l13.7-12.7L142.8,92z M128.5,84.6l14.2,7.2L142,72.1L128.5,84.6z"/>
</g>
<g id="triangle_x5F_486_1_">
	<path class="st0" d="M128.4,84.6L128.4,84.6L139,62.1l3.1,9.9l0,0L128.4,84.6z M139,62.4l-10.4,22L142,72L139,62.4z"/>
</g>
<g id="triangle_x5F_487_1_">
	<path class="st0" d="M128.5,84.6L128.5,84.6l-0.3-34.5L139,62.2l0,0L128.5,84.6z M128.2,50.3l0.2,34l10.5-22.1L128.2,50.3z"/>
</g>
<g>
	<path class="st0" d="M189.3,117.4h-3.5l-1.1-3.3L189.3,117.4z M185.9,117.3h3.1l-4.1-2.9L185.9,117.3z"/>
</g>
<g>
	<path class="st0" d="M185.9,117.4h-1.7l0.6-3.1l0.1,0L185.9,117.4z M184.3,117.3h1.4l-0.9-2.8L184.3,117.3z"/>
</g>
<g>
	<path class="st0" d="M166.2,117.4h-8.7l6.1-17.4l0.1,0L166.2,117.4z M157.6,117.3h8.5l-2.4-17.1L157.6,117.3z"/>
</g>
<g>
	<path class="st0" d="M157.6,117.4h-2l0,0l-9.6-4.8l0.1,0l17.8-12.7L157.6,117.4z M155.6,117.3h1.9l6-17.2l-17.4,12.4L155.6,117.3z"
		/>
</g>
<g>
	<path class="st0" d="M155.6,117.4H147l-1.1-4.9L155.6,117.4L155.6,117.4z M147.1,117.3h8.3l-9.3-4.6L147.1,117.3z"/>
</g>
<g id="triangle_x5F_498_1_">
	<path class="st0" d="M172.6,88.9l-1.1-17l10.1,13.9l-0.1,0L172.6,88.9z M171.7,72.2l1.1,16.5l8.7-3L171.7,72.2z"/>
</g>
<g id="triangle_x5F_499_1_">
	<path class="st0" d="M174.3,101.7l-10.7-1.7l9.2-11.3L174.3,101.7z M163.8,99.9l10.4,1.7l-1.5-12.7L163.8,99.9z"/>
</g>
<g id="triangle_x5F_500_1_">
	<path class="st0" d="M174.2,101.8l-1.6-13.1l0,0l8.9-3.1l0,0.1L174.2,101.8z M172.7,88.8l1.5,12.6l7.1-15.7L172.7,88.8z"/>
</g>
<g id="triangle_x5F_501_1_">
	<path class="st0" d="M163.7,100.1l-6.5-7.7l0.1,0l15.6-3.7L163.7,100.1z M157.4,92.5l6.3,7.4l8.9-11L157.4,92.5z"/>
</g>
<g id="triangle_x5F_502_1_">
	<path class="st0" d="M172.6,88.8l-10.4-19.7l9.4,2.8l0,0L172.6,88.8L172.6,88.8z M162.4,69.3l10.2,19.3l-1.1-16.5L162.4,69.3z"/>
</g>
<g id="triangle_x5F_503_1_">
	<path class="st0" d="M157.2,92.5l5.1-23.4l10.4,19.7L157.2,92.5z M162.4,69.4l-5,23l15.3-3.6L162.4,69.4z"/>
</g>
<g id="triangle_x5F_504_1_">
	<path class="st0" d="M204.9,50.8l-11.4-3.1l7.8-11.1L204.9,50.8z M193.7,47.7l11.1,3l-3.5-13.8L193.7,47.7z"/>
</g>
<g id="triangle_x5F_505_1_">
	<path class="st0" d="M193.6,47.8L191.4,32l10.1,4.8L193.6,47.8z M191.5,32.1l2.2,15.4l7.6-10.8L191.5,32.1z"/>
</g>
<g id="triangle_x5F_506_1_">
	<path class="st0" d="M193,72.3L193,72.3l0.6-24.7l11.4,3.1L193,72.3z M193.7,47.8L193,72.1l11.8-21.3L193.7,47.8z"/>
</g>
<g id="triangle_x5F_507_1_">
	<path class="st0" d="M193,72.4l-12.2-7.9l0,0l12.9-16.9l0,0.2L193,72.4z M180.9,64.5l12,7.8l0.7-24.4L180.9,64.5z"/>
</g>
<g id="triangle_x5F_508_1_">
	<path class="st0" d="M173.4,48.6l18-16.7l2.2,15.8L173.4,48.6z M191.4,32.1l-17.7,16.3l19.9-0.8L191.4,32.1z"/>
</g>
<g id="triangle_x5F_509_1_">
	<path class="st0" d="M180.8,64.6L180.8,64.6l-7.3-16.1l0.1,0l20.2-0.8L180.8,64.6z M173.7,48.6l7.2,15.8l12.7-16.6L173.7,48.6z"/>
</g>
<g>
	<path class="st0" d="M203.2,117.4h-6.8l0-0.1l2.7-10.8L203.2,117.4z M196.6,117.3h6.5l-3.9-10.4L196.6,117.3z"/>
</g>
<g>
	<path class="st0" d="M209,117.4h-5.9l-4-10.7l10.2-5.7L209,117.4z M203.2,117.3h5.7l0.3-16.1l-10,5.5L203.2,117.3z"/>
</g>
<g id="triangle_x5F_512_1_">
	<path class="st0" d="M199.1,106.8l-10-11.6l0.1,0l18.8-2.8l-0.1,0.1L199.1,106.8z M189.3,95.3l9.8,11.3l8.7-14.1L189.3,95.3z"/>
</g>
<g id="triangle_x5F_513_1_">
	<path class="st0" d="M199,106.8l9-14.5l1.3,8.8l0,0L199,106.8z M207.9,92.6l-8.6,14l9.9-5.5L207.9,92.6z"/>
</g>
<g id="triangle_x5F_514_1_">
	<path class="st0" d="M184.7,114.3l0-0.1l4.4-19.1l0.1,0.1l10,11.5l-0.1,0L184.7,114.3z M189.2,95.3l-4.4,18.8l14.2-7.5L189.2,95.3z
		"/>
</g>
<g>
	<path class="st0" d="M196.5,117.4h-7.4l-4.4-3.1l0.1,0l14.4-7.6L196.5,117.4z M189.1,117.3h7.3l2.6-10.5l-14.1,7.5L189.1,117.3z"/>
</g>
<g>
	<path class="st0" d="M247.2,7.8l-14.3-0.3l9.8-10.1h5.3v5.7L247.2,7.8z M233.2,7.4l13.9,0.3l0.9-4.6l0-5.6h-5.2L233.2,7.4z"/>
</g>
<g>
	<path class="st0" d="M233,7.6l2.6-10.2h7.4L233,7.6z M235.6-2.5l-2.4,9.8l9.5-9.8H235.6z"/>
</g>
<g>
	<path class="st0" d="M233.1,7.5l-8.7-10.2h11.2l0,0.1L233.1,7.5z M224.6-2.5l8.4,9.9l2.5-9.9H224.6z"/>
</g>
<g>
	<path class="st0" d="M213.6,14.5L213.6,14.5l2.9-17.1h8.1l0,0l8.6,10.1L213.6,14.5z M216.6-2.5l-2.8,16.9L233,7.4l-8.5-10H216.6z"
		/>
</g>
<g id="triangle_x5F_520_1_">
	<path class="st0" d="M231.8,22.3l-18.2-7.9l19.6-7.1l0,0.1L231.8,22.3z M213.8,14.4l17.9,7.8L233,7.5L213.8,14.4z"/>
</g>
<g id="triangle_x5F_521_1_">
	<path class="st0" d="M231.7,22.4l1.3-15l14.3,0.3L231.7,22.4z M233.1,7.5l-1.3,14.6L247,7.8L233.1,7.5z"/>
</g>
<g>
	<path class="st0" d="M167.8,21.8L167.8,21.8l3.5-24.4h0.3l0,0l11.3,23.2L167.8,21.8z M171.4-2.5l-3.5,24.2l14.8-1.1L171.5-2.5
		H171.4z"/>
</g>
<g>
	<path class="st0" d="M182.8,20.7l-0.1-0.1L171.4-2.6h1.5l15.2,3l0,0.1L182.8,20.7z M171.6-2.5l11.2,23l5.2-19.9l-15.1-3L171.6-2.5z
		"/>
</g>
<g>
	<path class="st0" d="M167.9,21.8l-7.4-8.2l0,0l10.6-16.2h0.2l0,0.1L167.9,21.8z M160.6,13.6l7.2,8l3.5-24.1h-0.1L160.6,13.6z"/>
</g>
<g>
	<path class="st0" d="M160.6,13.7l-8-16.3h18.7l-0.1,0.1L160.6,13.7z M152.7-2.5l7.8,16l10.5-16H152.7z"/>
</g>
<g id="triangle_x5F_534_1_">
	<path class="st0" d="M149,30.7L134.7,24l0,0l8.9-12.4L149,30.7z M134.9,23.9l13.9,6.6l-5.2-18.8L134.9,23.9z"/>
</g>
<g id="triangle_x5F_535_1_">
	<path class="st0" d="M148.9,30.8l-5.3-19.2l0.1,0l17,2L148.9,30.8z M143.7,11.7l5.2,18.8l11.6-16.9L143.7,11.7z"/>
</g>
<g>
	<path class="st0" d="M134.8,24.1l0-0.1l-5.3-26.6h2.8l0,0l11.4,14.2L134.8,24.1z M129.6-2.5l5.2,26.3l8.7-12.2L132.2-2.5H129.6z"/>
</g>
<g>
	<path class="st0" d="M143.6,11.7L132.1-2.6h18.4L143.6,11.7z M132.3-2.5l11.3,14.1l6.8-14.1H132.3z"/>
</g>
<g>
	<path class="st0" d="M160.7,13.7l-17.1-2l6.9-14.3h2.3L160.7,13.7z M143.7,11.6l16.8,1.9l-7.9-16.1h-2.1L143.7,11.6z"/>
</g>
<g>
	<path class="st0" d="M188.1,0.6l-1.3-3.2h3.5L188.1,0.6z M186.9-2.5l1.2,2.9l2-2.9H186.9z"/>
</g>
<g>
	<path class="st0" d="M188.2,0.5l-15.2-3.1l0-0.1h13.9L188.2,0.5z M173.5-2.5L188,0.4l-1.2-2.9H173.5z"/>
</g>
<radialGradient id="SVGID_1_" cx="56.101" cy="708.6884" r="14.5342" gradientTransform="matrix(2.0228 0 0 0.2382 74.7152 -67.9396)" gradientUnits="userSpaceOnUse">
	<stop  offset="0" style="stop-color:#AE8F7D"/>
	<stop  offset="2.851278e-02" style="stop-color:#B39786"/>
	<stop  offset="0.1639" style="stop-color:#CBB6AB"/>
	<stop  offset="0.3058" style="stop-color:#DED1C9"/>
	<stop  offset="0.454" style="stop-color:#ECE5E1"/>
	<stop  offset="0.6112" style="stop-color:#F7F4F2"/>
	<stop  offset="0.7837" style="stop-color:#FDFCFC"/>
	<stop  offset="1" style="stop-color:#FFFFFF"/>
</radialGradient>
<path class="st1" d="M217.6,100.9c0,1.9-13.2,3.5-29.4,3.5c-16.2,0-29.4-1.5-29.4-3.5c0-1.9,13.2-3.5,29.4-3.5
	C204.4,97.4,217.6,99,217.6,100.9z"/>
<g>
	<defs>
		<polygon id="SVGID_00000083791480186802051840000009874807022146422180_" points="25.8,45.9 11.5,21.5 40.1,21.5 		"/>
	</defs>
	<defs>
		<polygon id="SVGID_00000103945077461635623570000000369447461106655899_" points="1.4,15.6 1.4,43.8 25.8,57.9 50.2,43.8 
			50.2,15.6 25.8,1.5 		"/>
	</defs>
	<defs>
		<polygon id="SVGID_00000054230468928811378940000017593807400511686793_" points="25.8,45.9 11.5,21.5 1.4,43.8 		"/>
	</defs>
	<defs>
		<polygon id="SVGID_00000023264180127955535230000016283877722762521003_" points="1.4,15.6 11.5,21.5 1.4,43.8 		"/>
	</defs>
	<defs>
		<polygon id="SVGID_00000093868182148060420850000001298480018717040259_" points="50.2,15.6 50.2,43.8 40.1,21.5 		"/>
	</defs>
	<defs>
		<polygon id="SVGID_00000066502191049081126000000012107247797421419964_" points="50.2,15.6 25.8,1.5 40.1,21.5 		"/>
	</defs>
	<defs>
		<polygon id="SVGID_00000179623603230415168070000000765113399447667374_" points="1.4,15.6 11.5,21.5 25.8,1.5 		"/>
	</defs>
	<defs>
		<polygon id="SVGID_00000023988704631026793710000012441338919647483798_" points="25.8,45.9 50.2,43.8 40.1,21.5 		"/>
	</defs>
	<defs>
		<polygon id="SVGID_00000118362163988407031140000009847794688417969809_" points="25.8,45.9 50.2,43.8 25.8,57.9 		"/>
	</defs>
	<defs>
		<line id="SVGID_00000183957406796928705770000000729997761556023975_" x1="1.4" y1="43.8" x2="1.4" y2="15.6"/>
	</defs>
	<defs>
		<line id="SVGID_00000145027100043295429270000001651075514460239242_" x1="50.2" y1="43.8" x2="50.2" y2="15.6"/>
	</defs>
	<use xlink:href="#SVGID_00000083791480186802051840000009874807022146422180_"  style="overflow:visible;fill:#D43060;"/>
	<use xlink:href="#SVGID_00000103945077461635623570000000369447461106655899_"  style="overflow:visible;fill:#D43060;"/>
	<use xlink:href="#SVGID_00000054230468928811378940000017593807400511686793_"  style="overflow:visible;fill:#D43060;"/>
	<use xlink:href="#SVGID_00000023264180127955535230000016283877722762521003_"  style="overflow:visible;fill:#D43060;"/>
	<use xlink:href="#SVGID_00000093868182148060420850000001298480018717040259_"  style="overflow:visible;fill:#D43060;"/>
	<use xlink:href="#SVGID_00000066502191049081126000000012107247797421419964_"  style="overflow:visible;fill:#D43060;"/>
	<use xlink:href="#SVGID_00000179623603230415168070000000765113399447667374_"  style="overflow:visible;fill:#D43060;"/>
	<use xlink:href="#SVGID_00000023988704631026793710000012441338919647483798_"  style="overflow:visible;fill:#D43060;"/>
	<use xlink:href="#SVGID_00000118362163988407031140000009847794688417969809_"  style="overflow:visible;fill:#D43060;"/>
	<use xlink:href="#SVGID_00000183957406796928705770000000729997761556023975_"  style="overflow:visible;fill:#D43060;"/>
	<use xlink:href="#SVGID_00000145027100043295429270000001651075514460239242_"  style="overflow:visible;fill:#D43060;"/>
	<clipPath id="SVGID_00000128487036220408746800000010053100184042127280_">
		<use xlink:href="#SVGID_00000083791480186802051840000009874807022146422180_"  style="overflow:visible;"/>
	</clipPath>
	
		<clipPath id="SVGID_00000026848044432982525060000015696560546733268371_" style="clip-path:url(#SVGID_00000128487036220408746800000010053100184042127280_);">
		<use xlink:href="#SVGID_00000103945077461635623570000000369447461106655899_"  style="overflow:visible;"/>
	</clipPath>
	
		<clipPath id="SVGID_00000005229025761852924310000008927360041532723895_" style="clip-path:url(#SVGID_00000026848044432982525060000015696560546733268371_);">
		<use xlink:href="#SVGID_00000054230468928811378940000017593807400511686793_"  style="overflow:visible;"/>
	</clipPath>
	
		<clipPath id="SVGID_00000166634596448315474530000018229782654390708155_" style="clip-path:url(#SVGID_00000005229025761852924310000008927360041532723895_);">
		<use xlink:href="#SVGID_00000023264180127955535230000016283877722762521003_"  style="overflow:visible;"/>
	</clipPath>
	
		<clipPath id="SVGID_00000044882523348826814150000000405074480464760484_" style="clip-path:url(#SVGID_00000166634596448315474530000018229782654390708155_);">
		<use xlink:href="#SVGID_00000093868182148060420850000001298480018717040259_"  style="overflow:visible;"/>
	</clipPath>
	
		<clipPath id="SVGID_00000085223249906807928900000018114154940461628835_" style="clip-path:url(#SVGID_00000044882523348826814150000000405074480464760484_);">
		<use xlink:href="#SVGID_00000066502191049081126000000012107247797421419964_"  style="overflow:visible;"/>
	</clipPath>
	
		<clipPath id="SVGID_00000088116568666772044980000005379500405730599582_" style="clip-path:url(#SVGID_00000085223249906807928900000018114154940461628835_);">
		<use xlink:href="#SVGID_00000179623603230415168070000000765113399447667374_"  style="overflow:visible;"/>
	</clipPath>
	
		<clipPath id="SVGID_00000176026248855166237840000008674824617152277678_" style="clip-path:url(#SVGID_00000088116568666772044980000005379500405730599582_);">
		<use xlink:href="#SVGID_00000023988704631026793710000012441338919647483798_"  style="overflow:visible;"/>
	</clipPath>
	
		<clipPath id="SVGID_00000040570942091082061440000005492047640859158445_" style="clip-path:url(#SVGID_00000176026248855166237840000008674824617152277678_);">
		<use xlink:href="#SVGID_00000118362163988407031140000009847794688417969809_"  style="overflow:visible;"/>
	</clipPath>
	
		<clipPath id="SVGID_00000000912725754151309560000008788245681417440185_" style="clip-path:url(#SVGID_00000040570942091082061440000005492047640859158445_);">
		<use xlink:href="#SVGID_00000183957406796928705770000000729997761556023975_"  style="overflow:visible;"/>
	</clipPath>
	
		<clipPath id="SVGID_00000046330487541781578130000001776640890010548634_" style="clip-path:url(#SVGID_00000000912725754151309560000008788245681417440185_);">
		<use xlink:href="#SVGID_00000145027100043295429270000001651075514460239242_"  style="overflow:visible;"/>
	</clipPath>
	
		<rect x="-4.1" y="-0.6" style="clip-path:url(#SVGID_00000046330487541781578130000001776640890010548634_);fill:#D43060;stroke:#FFFFFF;stroke-width:0.25;stroke-miterlimit:10;" width="60.7" height="60.7"/>
	
		<use xlink:href="#SVGID_00000083791480186802051840000009874807022146422180_"  style="overflow:visible;fill:none;stroke:#FFFFFF;stroke-width:0.25;stroke-miterlimit:10;"/>
	
		<use xlink:href="#SVGID_00000103945077461635623570000000369447461106655899_"  style="overflow:visible;fill:none;stroke:#FFFFFF;stroke-width:0.25;stroke-miterlimit:10;"/>
	
		<use xlink:href="#SVGID_00000054230468928811378940000017593807400511686793_"  style="overflow:visible;fill:none;stroke:#FFFFFF;stroke-width:0.25;stroke-miterlimit:10;"/>
	
		<use xlink:href="#SVGID_00000023264180127955535230000016283877722762521003_"  style="overflow:visible;fill:none;stroke:#FFFFFF;stroke-width:0.25;stroke-miterlimit:10;"/>
	
		<use xlink:href="#SVGID_00000093868182148060420850000001298480018717040259_"  style="overflow:visible;fill:none;stroke:#FFFFFF;stroke-width:0.25;stroke-miterlimit:10;"/>
	
		<use xlink:href="#SVGID_00000066502191049081126000000012107247797421419964_"  style="overflow:visible;fill:none;stroke:#FFFFFF;stroke-width:0.25;stroke-miterlimit:10;"/>
	
		<use xlink:href="#SVGID_00000179623603230415168070000000765113399447667374_"  style="overflow:visible;fill:none;stroke:#FFFFFF;stroke-width:0.25;stroke-miterlimit:10;"/>
	
		<use xlink:href="#SVGID_00000023988704631026793710000012441338919647483798_"  style="overflow:visible;fill:none;stroke:#FFFFFF;stroke-width:0.25;stroke-miterlimit:10;"/>
	
		<use xlink:href="#SVGID_00000118362163988407031140000009847794688417969809_"  style="overflow:visible;fill:none;stroke:#FFFFFF;stroke-width:0.25;stroke-miterlimit:10;"/>
	
		<use xlink:href="#SVGID_00000183957406796928705770000000729997761556023975_"  style="overflow:visible;fill:none;stroke:#FFFFFF;stroke-width:0.25;stroke-miterlimit:10;"/>
	
		<use xlink:href="#SVGID_00000145027100043295429270000001651075514460239242_"  style="overflow:visible;fill:none;stroke:#FFFFFF;stroke-width:0.25;stroke-miterlimit:10;"/>
</g>
<g>
	<g>
		<path class="st13" d="M26,34.8C26,34.8,26,34.8,26,34.8c-0.1,0-0.1,0-0.2,0c-0.1,0-0.2-0.1-0.2-0.1s-0.1-0.1-0.1-0.2
			s-0.1-0.1-0.1-0.2s-0.1-0.1-0.1-0.2V33c0-0.2,0.1-0.3,0.2-0.4s0.2-0.2,0.3-0.4s0.2-0.2,0.3-0.3c0.1-0.1,0.2-0.1,0.3-0.2l1.2-0.6
			l0.8-0.9c0-0.1,0-0.1,0-0.2s0-0.1,0.1-0.1s0-0.1,0.1-0.1s0-0.1,0.1-0.1s0-0.1,0.1-0.1s0-0.1,0.1-0.1s0-0.1,0-0.1s0-0.1,0-0.1
			l-0.1-1c0,0-0.1-0.1-0.1-0.1s-0.1-0.1-0.1-0.1S28.5,28,28.4,28s-0.1,0-0.1,0c0,0-0.1,0-0.1,0s-0.1,0-0.1,0s-0.1,0-0.1,0
			s-0.1,0-0.1,0L26.7,29c-0.1,0-0.2,0-0.2,0s-0.1,0-0.2,0s-0.1,0-0.2,0S26,28.9,26,28.8c0-0.1,0-0.3-0.1-0.4s0-0.3,0-0.4
			s0-0.3,0-0.4s0-0.3,0-0.4s0-0.3,0-0.4s0-0.3-0.1-0.4s-0.1-0.2-0.1-0.3s-0.2-0.2-0.3-0.3L23,26.2v3.9c0.1,0,0.1,0,0.2,0
			s0.1,0,0.2,0s0.1,0,0.2,0s0.1,0.1,0.1,0.2l-2.2,1.2c0,0-0.1,0-0.1-0.1s0-0.1,0-0.1s0-0.1,0-0.1s0-0.1,0-0.1c0-0.1,0.1-0.1,0.1-0.2
			s0.1-0.1,0.1-0.2s0.1-0.1,0.1-0.2s0-0.1,0-0.2l0.2-4.9c-0.1,0-0.1-0.1-0.2-0.1s-0.1,0-0.2,0s-0.1,0-0.2,0s-0.1,0-0.1-0.1
			c0,0,0-0.1,0-0.1s0,0,0-0.1s0,0,0,0s0,0,0,0s0,0,0,0s0,0,0,0s0,0,0.1-0.1s0.1,0,0.1-0.1h6.8c0.1,0,0.2-0.1,0.3-0.1
			s0.2-0.1,0.2-0.1s0.1-0.1,0.2-0.1s0.1-0.1,0.1-0.1c0,0,0-0.1,0-0.1s0-0.1,0-0.1s0-0.1,0-0.1s0-0.1,0-0.1s0-0.1,0-0.1s0-0.1,0-0.1
			s0-0.1,0.1-0.1s0.1,0,0.1-0.1l1.5,2.2c0,0,0,0.1,0,0.1s0,0.1,0,0.1s0,0.1,0,0.1s0,0.1,0,0.1s0,0.1,0,0.1s0,0,0,0.1s0,0,0,0
			s0,0-0.1,0c-0.1-0.1-0.2-0.2-0.2-0.3S30.1,26,30,26s-0.1-0.1-0.2-0.2s-0.2-0.1-0.2-0.1c-0.1,0-0.2,0.1-0.3,0.1s-0.2,0-0.3,0
			s-0.2,0-0.4,0s-0.2,0-0.3,0s-0.2,0-0.3,0s-0.2,0-0.3,0s-0.2,0.1-0.2,0.1s-0.1,0.1-0.2,0.3c0,0.1,0,0.1,0,0.2s0,0.1,0,0.2
			s0,0.1,0,0.2s0,0.1,0,0.2s0,0.1,0,0.2s0,0.1,0.1,0.1s0.1,0.1,0.1,0.1s0.1,0,0.2,0l1.9,0.1c0.1,0.1,0.1,0.1,0.2,0.2
			s0.1,0.1,0.1,0.2s0.1,0.1,0.1,0.2s0.1,0.2,0.1,0.3l-1.2,3.1c-0.1,0.1-0.1,0.1-0.2,0.1s-0.1,0.1-0.2,0.1s-0.1,0.1-0.2,0.1
			s-0.1,0.1-0.1,0.1l0.4,1.2l-0.5,1.2c-0.1,0.1-0.2,0.1-0.2,0.2s-0.2,0.1-0.2,0.2L26,34.8z M27,33.9C27,33.8,27,33.8,27,33.9
			c0.1-0.1,0.1-0.1,0.1-0.2v-0.8c0,0-0.1-0.1-0.1-0.1s-0.1,0-0.1,0s-0.1,0.1-0.1,0.1S26.7,33,26.6,33c0,0.1,0,0.1,0,0.2s0,0.1,0,0.2
			s0,0.2,0,0.2s0,0.2,0.1,0.2c0,0,0.1,0,0.1,0S26.9,33.9,27,33.9z"/>
	</g>
	<g>
		<path class="st13" d="M23.6,18.2C23.6,18.2,23.6,18.2,23.6,18.2c-0.1,0-0.1,0-0.1,0c-0.1,0-0.1-0.1-0.2-0.1
			c-0.1,0-0.1-0.1-0.2-0.1c0,0-0.1-0.1-0.1-0.1c0,0-0.1-0.1-0.1-0.2c0-0.1,0-0.3,0-0.4c0-0.1,0-0.2,0-0.4c0-0.1,0-0.2,0-0.4
			c0-0.1,0-0.2,0-0.4c0-0.1,0-0.2,0-0.4c0-0.1,0-0.2,0-0.4c0-0.1,0-0.2-0.1-0.4c0-0.1-0.1-0.2-0.1-0.4c0,0,0,0-0.1-0.1
			c0,0,0,0-0.1,0c0,0,0,0-0.1,0c0,0-0.1,0-0.1,0l-1.9,1.9c0.1,0,0.1,0,0.2,0c0.1,0,0.1,0,0.2,0c0.1,0,0.1,0,0.2,0
			c0.1,0,0.1,0,0.2-0.1c0.1,0,0.1,0,0.2,0c0.1,0,0.1,0,0.2,0c0.1,0,0.1,0,0.1,0c0,0,0.1,0.1,0.1,0.1c0,0,0,0,0,0.1c0,0,0,0.1,0,0.1
			c0,0,0,0.1,0,0.1c0,0,0,0,0,0.1l-0.6,0.3c0,0-0.1-0.1-0.1-0.1c0,0-0.1-0.1-0.1-0.1c0,0-0.1,0-0.1-0.1c0,0-0.1,0-0.1,0l-0.9,0
			c0-0.1,0-0.1,0-0.2c0-0.1,0-0.1,0.1-0.2c0,0,0.1-0.1,0.1-0.1c0,0,0.1-0.1,0.1-0.1l1.8-1.7c0.1-0.1,0.1-0.1,0.2-0.2
			c0-0.1,0-0.1,0-0.2c0-0.1-0.1-0.1-0.1-0.2c0-0.1-0.1-0.1-0.1-0.1c0,0-0.1-0.1-0.1-0.1c-0.1,0-0.1,0-0.2-0.1L20.9,14
			c0,0-0.1,0-0.1,0c0,0-0.1,0-0.1,0c0,0-0.1,0-0.1,0c0,0,0,0-0.1,0c-0.1,0-0.1-0.1-0.1-0.1c0-0.1,0-0.1,0-0.2c0-0.1,0-0.1,0.1-0.2
			c0-0.1,0.1-0.1,0.1-0.2c0,0,0.1-0.1,0.1-0.1c0,0,0.1-0.1,0.1-0.1l1-0.3c0.1,0.1,0.2,0.1,0.4,0.2c0.1,0.1,0.2,0.2,0.4,0.3
			c0.1,0.1,0.2,0.2,0.3,0.3c0.1,0.1,0.2,0.2,0.3,0.4l0.7,3.7c0.1,0,0.3,0,0.5,0c0.2,0,0.3,0,0.5,0c0.2,0,0.3,0,0.5,0
			c0.2,0,0.3,0,0.5,0c0.2,0,0.3,0,0.5,0c0.2,0,0.3,0,0.5,0c0.1,0,0.3-0.1,0.4-0.1c0.1-0.1,0.2-0.1,0.4-0.2c0-0.2,0-0.5,0.1-0.7
			c0-0.2,0.1-0.5,0.1-0.7c0.1-0.2,0.1-0.5,0.2-0.7s0.2-0.5,0.3-0.7c0.1-0.2,0.2-0.4,0.3-0.7c0.1-0.2,0.2-0.4,0.3-0.6
			c0.1-0.2,0.2-0.4,0.3-0.6c0.1-0.2,0.2-0.4,0.3-0.5c0,0,0-0.1-0.1-0.1c0,0,0,0-0.1-0.1c0,0-0.1,0-0.1,0c0,0-0.1,0-0.1,0
			c0,0-0.1,0-0.1,0c0,0-0.1,0-0.1,0c0,0,0,0-0.1,0c0,0,0,0,0-0.1l2.7-0.2c0,0,0,0.1-0.1,0.1c0,0-0.1,0-0.1,0c0,0-0.1,0-0.1,0
			c0,0-0.1,0-0.1,0c-0.3,0.1-0.5,0.3-0.7,0.5c-0.2,0.2-0.4,0.4-0.6,0.6c-0.2,0.2-0.3,0.5-0.5,0.7c-0.1,0.3-0.3,0.5-0.4,0.8
			c-0.1,0.3-0.2,0.6-0.3,0.9c-0.1,0.3-0.2,0.6-0.3,0.9c-0.1,0.3-0.2,0.6-0.2,0.9c-0.1,0.3-0.2,0.6-0.2,0.9L23.6,18.2z M31.3,14.2
			C31.3,14.2,31.2,14.2,31.3,14.2l-0.1-0.6c0,0,0.1-0.1,0.1-0.1c0,0,0.1-0.1,0.1-0.1c0,0,0.1,0,0.1-0.1c0,0,0.1,0,0.1,0
			c0.1,0,0.1,0,0.2,0c0,0,0.1,0.1,0.1,0.1c0,0,0,0.1,0,0.2c0,0.1,0,0.1,0,0.2c0,0.1,0,0.1,0,0.2c0,0.1,0,0.1,0,0.1c0,0,0,0-0.1,0
			c0,0,0,0,0,0c0,0,0,0,0,0c0,0,0,0,0,0c0,0,0,0,0,0c0,0,0,0,0,0c0,0,0,0,0,0c0,0,0,0,0,0c0,0-0.1,0-0.1,0s0,0-0.1,0
			C31.4,14.2,31.3,14.2,31.3,14.2z"/>
	</g>
	<g>
		<path class="st13" d="M37.5,48.4C37.5,48.4,37.5,48.5,37.5,48.4L37.1,49l-3.3-1.1L32.9,50l-1.8-0.8c-0.1,0.1-0.2,0.3-0.3,0.4
			c-0.1,0.2-0.2,0.3-0.3,0.5s-0.2,0.3-0.2,0.5c-0.1,0.2-0.1,0.4-0.2,0.5c0,0,0,0.1,0,0.1s0,0.1,0,0.1c0,0,0,0.1,0,0.1c0,0,0,0,0,0.1
			c0,0,0.1,0,0.1,0.1c0,0,0.1,0.1,0.1,0.1c0,0,0.1,0.1,0.1,0.1c0,0,0,0.1,0.1,0.1c0,0,0,0.1,0,0.1c0,0,0,0-0.1,0.1c0,0,0,0-0.1,0
			s0,0-0.1,0l-0.7-0.4c-0.1,0-0.1-0.1-0.2-0.1c0,0-0.1-0.1-0.2-0.1c0,0-0.1-0.1-0.1-0.1c0,0-0.1-0.1-0.1-0.1c0,0-0.1-0.1-0.1-0.1
			c0,0-0.1,0-0.1-0.1c0,0-0.1,0-0.1-0.1s-0.1,0-0.1-0.1c0,0,0-0.1-0.1-0.1c0,0,0-0.1,0-0.1l0.7,0l1.1-2.2c0-0.1,0.1-0.1,0.1-0.2
			c0,0,0.1-0.1,0.1-0.1c0.1,0,0.2,0,0.3,0s0.2,0,0.3,0.1c0.1,0,0.2,0.1,0.2,0.1s0.1,0.1,0.2,0.1c0.1,0,0.1,0.1,0.2,0.1
			c0.1,0,0.1,0.1,0.2,0.1c0.1,0,0.1,0,0.2,0.1c0.1,0,0.1,0,0.2,0l0.8-1.9l3.4,1.3c0,0,0.1,0,0.1,0c0,0,0.1,0,0.1,0
			c0,0,0.1,0,0.1-0.1c0,0,0.1,0,0.1-0.1c0,0,0.1,0,0.1-0.1c0,0,0.1,0,0.1,0c0,0,0.1,0,0.1,0c0,0,0.1,0,0.1,0.1c0,0,0,0,0.1,0.1
			c0,0,0,0,0.1,0.1C37.5,48.3,37.5,48.4,37.5,48.4z"/>
	</g>
	<g>
		<path class="st13" d="M41.1,19C41,19,41,19,41.1,19C41,19,41,19,40.9,19c0,0,0,0,0,0c0,0,0,0,0,0c0,0-0.1,0-0.1,0c0,0,0,0-0.1,0
			c0,0,0,0-0.1,0c0,0,0,0,0,0c0-0.1,0-0.1,0-0.2c0-0.1,0-0.1,0-0.2c0-0.1,0.1-0.1,0.1-0.2c0-0.1,0.1-0.1,0.1-0.2
			c0-0.1,0.1-0.1,0.1-0.2c0-0.1,0.1-0.1,0.1-0.2c0-0.1,0-0.1,0-0.2c0-0.1,0-0.1-0.1-0.2l-1.6-1.9c0-0.1,0-0.1,0-0.2
			c0,0,0-0.1,0.1-0.1c0.1,0,0.1,0,0.1-0.1c0,0,0.1,0,0.1-0.1c0,0,0.1,0,0.1-0.1c0,0,0.1,0,0.1-0.1c0-0.1,0.1-0.1,0.1-0.2
			c0-0.1,0-0.1,0-0.2c0-0.1,0-0.1,0-0.2c0-0.1,0-0.1,0-0.1l-0.5-0.9c0,0-0.1,0-0.1,0c0,0-0.1,0-0.1,0c0,0-0.1,0-0.1,0
			c0,0-0.1,0-0.1,0c0,0-0.1,0-0.1,0c0,0-0.1,0-0.1,0.1c0,0,0,0-0.1,0.1c0,0,0,0,0,0c0,0.1-0.1,0.1-0.1,0.2c0,0.1,0,0.1,0,0.2
			c0,0.1,0,0.1,0,0.2c0,0.1,0,0.1,0,0.2c0,0,0,0.1-0.1,0.1c0,0-0.1,0.1-0.1,0.1c0,0-0.1,0-0.1,0c0,0-0.1,0-0.1-0.1l-1.5-1.8
			c0,0-0.1,0-0.1,0.1c0,0-0.1,0.1-0.1,0.1c0,0,0,0.1,0,0.1c0,0,0,0.1,0,0.1c0,0,0,0-0.1,0.1c0,0-0.1,0-0.1,0.1c0,0-0.1,0-0.1,0
			c0,0,0,0,0-0.1l0.3-1.7l0.2-1.7c0,0,0,0,0.1,0c0,0,0,0,0,0c0,0,0,0,0,0c0,0,0,0,0,0l0.1,1.1c0,0.1,0,0.1,0,0.2c0,0.1,0,0.1,0,0.2
			c0,0.1,0,0.1,0.1,0.1c0,0,0.1,0.1,0.1,0.1c0,0,0,0.1,0.1,0.1c0,0,0,0.1,0,0.1c0,0.1,0,0.1,0,0.2c0,0.1,0,0.1,0,0.2l1.1,1.3
			l0.6-0.7l0.6,0.1c0.1,0.1,0.2,0.3,0.3,0.4c0.1,0.1,0.2,0.3,0.2,0.4c0.1,0.1,0.1,0.3,0.2,0.4c0,0.1,0.1,0.3,0.1,0.4
			c0,0.1,0,0.3,0.1,0.4c0,0.1,0,0.3,0,0.4c0,0.1,0,0.3,0,0.4c0,0.1,0,0.3,0,0.4c0,0,0.1,0.1,0.1,0.1c0,0.1,0.1,0.1,0.1,0.2
			c0,0.1,0.1,0.1,0.1,0.2c0,0.1,0.1,0.1,0.1,0.2c0,0.1,0.1,0.1,0.1,0.1c0,0,0.1,0.1,0.1,0.1c0,0,0.1,0.1,0.2,0.1c0.1,0,0.1,0,0.2,0
			l0.8-1l0.4-1.1c0,0,0.1,0,0.1-0.1c0,0,0-0.1,0.1-0.1c0,0,0-0.1,0-0.1c0,0,0-0.1,0-0.1c0.1,0,0.1,0,0.1,0c0,0,0,0,0.1,0
			c0.1,0.1,0.1,0.3,0.1,0.4c0,0.1,0.1,0.3,0.1,0.4c0,0.1,0,0.3,0,0.4c0,0.1,0,0.3,0,0.4c0,0,0,0,0,0.1s0,0,0,0c0,0,0,0,0,0
			c0,0,0,0,0,0c0,0,0,0,0,0c0,0,0,0,0,0c0,0,0,0,0,0c0,0,0,0,0,0c0,0,0,0-0.1,0c0,0,0,0-0.1-0.1c0,0,0,0,0-0.1c0,0,0,0,0-0.1
			c0,0,0,0,0-0.1c0,0,0,0,0,0c0,0,0,0-0.1,0c0,0,0,0-0.1,0L41.1,19z"/>
	</g>
	<g>
		<path class="st13" d="M41.5,32.2C41.5,32.2,41.5,32.1,41.5,32.2c0-0.1,0-0.1,0-0.1C41.5,32.1,41.5,32.1,41.5,32.2
			C41.5,32.1,41.5,32.1,41.5,32.2c0.1-0.1,0.1,0,0.1,0c0,0,0,0,0,0c0,0,0,0,0,0c0,0,0,0.1,0,0.1c0,0,0,0.1,0,0.1s0,0.1,0,0.1
			c0,0,0,0,0,0.1l-4.5,3.1c0,0,0,0.1,0,0.1s0,0,0.1,0.1c0,0,0.1,0,0.1,0c0,0,0.1,0,0.1,0c0.1,0,0.1-0.1,0.2-0.1c0,0,0.1,0,0.1-0.1
			c0,0,0.1,0,0.1,0c0,0,0.1,0,0.1-0.1l2.1,0.1c0.1,0,0.1,0,0.2,0.1c0.1,0,0.1,0,0.1,0.1c0,0,0.1,0.1,0.1,0.1s0,0.1,0,0.1l-2.2,2.4
			c0,0.1,0,0.1,0,0.2c0,0,0,0.1,0,0.1c0,0,0,0,0.1,0.1c0,0,0.1,0,0.1,0l4.5,0c0,0.1,0,0.1,0.1,0.2c0,0.1,0,0.1,0,0.1
			c0,0.1,0,0.1-0.1,0.2c0,0.1,0,0.1-0.1,0.2c0,0.1,0,0.1-0.1,0.1c0,0-0.1,0.1-0.1,0.1l-6.1,0l2.5-2.8c0-0.1,0-0.1,0-0.2
			c0,0,0-0.1,0-0.1c0,0-0.1,0-0.1-0.1s-0.1,0-0.1,0c-0.1,0-0.1,0-0.2,0c0,0-0.1,0-0.1,0s-0.1,0-0.1,0s-0.1,0-0.1,0
			c-0.1,0-0.1,0-0.2,0c-0.1,0-0.1,0-0.1,0c0,0-0.1,0-0.1,0c0,0-0.1,0-0.1,0l-1.8,0.5c0,0-0.1,0.1-0.1,0.1c0,0,0,0.1-0.1,0.1
			c0,0.1,0,0.1,0,0.2c0,0.1,0,0.1,0,0.2c0,0.1,0.1,0.2,0.1,0.2c0,0.1,0.1,0.1,0.1,0.1c0,0,0.1,0,0.1,0c0,0,0.1,0,0.1,0
			c0,0,0.1,0,0.1,0c0,0,0.1,0,0.1,0c0,0,0.1,0,0.1,0c0,0,0,0,0.1,0c0,0,0,0,0,0.1c0,0,0,0.1,0,0.1c-0.1,0.1-0.2,0.1-0.2,0.2
			c-0.1,0.1-0.2,0.1-0.2,0.2c-0.1,0.1-0.2,0.1-0.3,0.2c-0.1,0-0.2,0.1-0.3,0.1c-0.1,0-0.1,0-0.2-0.1c0,0-0.1-0.1-0.1-0.1
			c0,0-0.1-0.1-0.1-0.1c0,0,0-0.1-0.1-0.1l0-0.7l0.3-0.8c0.2-0.3,0.5-0.5,0.7-0.8c0.2-0.2,0.5-0.5,0.7-0.7c0.2-0.2,0.5-0.4,0.8-0.6
			c0.3-0.2,0.5-0.4,0.8-0.5c0.3-0.2,0.5-0.3,0.8-0.5c0.3-0.2,0.5-0.3,0.8-0.5c0.3-0.2,0.5-0.3,0.8-0.5
			C40.9,32.5,41.2,32.4,41.5,32.2z M36.5,33.6C36.5,33.6,36.5,33.6,36.5,33.6c0.1,0,0.1,0,0.2,0.1c0,0,0,0,0.1,0c0,0,0,0,0,0
			c0,0,0.1,0.1,0.1,0.1c0,0,0,0.1,0,0.1c0,0,0,0.1,0,0.1c0,0,0,0.1,0,0.1c0,0.1,0,0.2-0.1,0.2c0,0.1-0.1,0.1-0.1,0.2
			c-0.1,0.1-0.1,0.1-0.2,0.2c-0.1,0-0.1,0.1-0.2,0.1c0,0-0.1,0-0.1,0s-0.1,0-0.1,0c0,0-0.1,0-0.1,0c0,0,0,0-0.1,0
			c-0.1,0-0.1-0.1-0.2-0.1c0-0.1-0.1-0.1-0.1-0.2c0-0.1,0-0.2,0.1-0.2c0-0.1,0-0.1,0.1-0.2c0-0.1,0.1-0.1,0.1-0.2
			c0-0.1,0.1-0.1,0.1-0.1c0,0,0.1,0,0.1-0.1c0,0,0.1,0,0.1,0C36.3,33.6,36.4,33.6,36.5,33.6C36.4,33.6,36.4,33.6,36.5,33.6z
			 M42.3,35.7c0.1,0,0.1-0.1,0.1-0.1c0,0,0.1,0,0.1,0c0.1,0,0.1,0,0.2,0.1c0,0,0.1,0.1,0.1,0.1s0.1,0.1,0.1,0.1c0,0,0,0,0.1,0
			c0,0,0,0.1,0,0.1c0,0,0,0.1,0,0.1c0,0,0,0.1,0,0.1c0,0,0,0.1,0,0.1c0,0.1-0.1,0.1-0.1,0.2c0,0.1-0.1,0.1-0.1,0.2
			c0,0.1-0.1,0.1-0.1,0.1c-0.1,0-0.1,0.1-0.2,0.1c-0.1,0-0.2-0.1-0.2-0.1c-0.1,0-0.1-0.1-0.1-0.1l0-0.8c0,0,0.1-0.1,0.1-0.1
			c0,0,0.1-0.1,0.1-0.1C42.2,35.7,42.2,35.7,42.3,35.7C42.2,35.7,42.2,35.7,42.3,35.7z"/>
	</g>
	<g>
		<path class="st13" d="M7.5,38.3l0-0.9l0.2-0.7l0.9-1.4l0.6-0.4c0.2-0.1,0.3-0.2,0.5-0.2s0.3-0.1,0.5-0.1c0.2,0,0.4,0,0.5,0
			c0.2,0,0.4,0,0.5,0c0.2,0,0.3,0,0.5,0.1c0.2,0,0.3,0,0.5,0.1c0.1,0,0.3,0,0.4,0c0.1,0,0.2,0,0.3,0l-0.2-2.2c0,0,0.1,0,0.1,0
			c0,0,0.1,0,0.1,0c0,0,0.1,0,0.1,0c0,0,0,0,0.1,0c0.1,0,0.1,0.1,0.2,0.1c0,0.1,0.1,0.1,0.1,0.2l1.1,4.3c0,0,0,0-0.1,0
			c0,0-0.1,0-0.1,0c0,0-0.1,0-0.1,0c0,0,0,0-0.1,0l-0.7-0.8c-0.1-0.1-0.2-0.1-0.3-0.2c-0.1-0.1-0.1-0.1-0.2-0.2
			C13,36,13,35.9,12.9,35.9c-0.1,0-0.1-0.1-0.2-0.1c-0.1,0-0.3-0.1-0.4-0.1c-0.1,0-0.3-0.1-0.4-0.1c-0.2,0-0.3-0.1-0.5-0.1
			c-0.2,0-0.3,0-0.5,0c-0.2,0-0.3,0-0.5,0c-0.2,0-0.3,0.1-0.5,0.1c-0.1,0-0.3,0.1-0.4,0.2c-0.1,0.1-0.3,0.2-0.4,0.3l-0.8,2.1
			c0,0.1,0,0.1,0,0.2c0,0.1,0,0.1,0,0.2c0,0.1,0,0.1,0,0.2c0,0.1,0,0.1-0.1,0.1c0,0-0.1,0-0.1,0.1c-0.1,0-0.1,0.1-0.1,0.1
			C8,39,8,39,8,39.1c0,0,0,0.1,0.1,0.1c0.1,0,0.1,0,0.2,0c0.1,0,0.1,0,0.2,0c0,0,0.1,0,0.1,0c0,0,0.1,0,0.1,0.1L9.9,40
			c0,0,0.1,0,0.1,0c0,0,0.1,0,0.1,0c0,0,0.1,0,0.1,0c0,0,0,0,0.1,0l3.1-0.4c0.1,0,0.1-0.1,0.2-0.1c0,0,0.1-0.1,0.1-0.1
			c0,0,0.1-0.1,0.1-0.1c0,0,0.1-0.1,0.1-0.1c0,0,0-0.1,0-0.1c0,0,0,0,0-0.1c0,0,0,0,0,0c0,0,0,0,0,0c0,0,0,0,0,0c0,0,0,0,0,0
			c0,0,0,0,0,0c0,0,0,0,0-0.1l-1.7,0l-0.2-0.7l-0.4-0.6c0-0.1,0-0.1,0-0.2c0-0.1,0-0.1,0-0.2c0-0.1,0-0.1,0-0.2c0-0.1,0-0.1,0.1-0.1
			c0,0,0-0.1,0.1-0.1c0,0,0,0,0,0c0,0,0,0,0,0c0,0,0,0,0,0c0,0,0,0,0,0c0,0,0,0,0,0c0,0,0,0,0,0c0,0,0,0,0.1,0l0.7,1.3l2,0.1
			l0.9,3.2c0,0,0,0.1,0,0.1c0,0.1,0,0.1,0,0.1s0,0.1,0,0.1c0,0,0,0-0.1,0.1c-0.1,0-0.1-0.1-0.2-0.1c0,0-0.1-0.1-0.1-0.1
			c0,0,0-0.1-0.1-0.1c0,0-0.1-0.1-0.1-0.2c0-0.1,0-0.1-0.1-0.2c0-0.1,0-0.1-0.1-0.2c0-0.1,0-0.1,0-0.2c0-0.1,0-0.1,0-0.2
			c0-0.1,0-0.1,0-0.2c0-0.1,0-0.1-0.1-0.2c0,0-0.1-0.1-0.1-0.1c0,0-0.1-0.1-0.1-0.1c-0.2,0.1-0.4,0.2-0.6,0.2
			c-0.2,0.1-0.4,0.1-0.7,0.2c-0.2,0-0.5,0.1-0.7,0.1c-0.2,0-0.5,0-0.7,0c-0.2,0-0.5,0-0.7,0c-0.2,0-0.5,0-0.7-0.1
			c-0.2,0-0.4-0.1-0.6-0.1c-0.2,0-0.4-0.1-0.6-0.2l-0.6-0.4c-0.1,0-0.1-0.1-0.2-0.1c0-0.1-0.1-0.1-0.1-0.2c0,0,0-0.1-0.1-0.1
			c0,0,0-0.1-0.1-0.1c0,0,0-0.1,0-0.1c0,0,0,0,0-0.1L7.5,38.3z"/>
	</g>
	<g>
		<path class="st13" d="M8.7,15.4C8.7,15.4,8.7,15.3,8.7,15.4C8.7,15.3,8.6,15.3,8.7,15.4l-0.1-0.9c0,0,0-0.1,0-0.1
			c0,0,0-0.1-0.1-0.1c0,0,0,0-0.1-0.1c0,0,0,0-0.1-0.1c0,0,0,0-0.1-0.1c0,0,0,0,0-0.1c0,0,0,0,0-0.1c0,0,0,0,0.1-0.1l2.4,0.8
			c0,0,0,0,0,0c0,0,0,0,0,0c0,0,0,0,0,0c0,0,0,0,0,0c0,0,0,0,0,0c0,0,0,0,0,0c0,0,0,0,0,0c0,0,0,0.1-0.1,0.1c0,0-0.1,0-0.1,0
			c0,0-0.1,0-0.1,0c0,0-0.1,0-0.1,0c-0.1,0-0.1,0-0.2,0c-0.1,0-0.1,0-0.2-0.1c-0.1,0-0.1,0-0.2,0c-0.1,0-0.1,0-0.1,0.1
			c-0.1,0.1-0.1,0.2-0.2,0.3s0,0.2,0,0.3l0.5,0.6l0.6,0.3c0.1,0,0.1,0,0.2,0c0.1,0,0.1,0,0.1,0c0,0,0.1,0,0.1,0c0,0,0.1,0,0.1,0
			c0,0,0.1,0,0.1,0c0,0,0.1,0,0.1,0c0,0,0.1,0,0.1,0c0,0,0,0,0.1,0c0.2-0.1,0.3-0.1,0.4-0.2c0.1-0.1,0.3-0.2,0.4-0.2
			c0.1-0.1,0.2-0.2,0.3-0.3c0.1-0.1,0.2-0.2,0.3-0.3l0.6-2.1c0-0.1,0-0.1,0-0.2c0-0.1,0-0.1,0-0.2c0,0,0-0.1,0-0.1c0,0,0-0.1,0-0.1
			c0,0,0-0.1,0-0.1c0,0,0,0,0-0.1c0,0,0,0-0.1-0.1c0,0,0,0-0.1-0.1c0,0,0,0,0-0.1c0,0,0,0,0,0L13,11.9c0,0,0-0.1,0-0.1
			c0,0,0-0.1,0.1-0.1l2.1,0.7c0,0-0.1,0-0.1,0.1c0,0-0.1,0-0.1,0c0,0-0.1,0-0.1,0c0,0-0.1,0-0.1,0.1l-0.2,2.2
			c-0.1,0.1-0.1,0.3-0.2,0.4c-0.1,0.1-0.2,0.3-0.3,0.4c-0.1,0.1-0.2,0.2-0.3,0.4c-0.1,0.1-0.2,0.2-0.4,0.3c-0.1,0.1-0.3,0.2-0.4,0.3
			c-0.1,0.1-0.3,0.2-0.4,0.2c-0.1,0.1-0.3,0.1-0.4,0.1c-0.1,0-0.3,0.1-0.4,0.1c-0.3,0-0.6-0.1-0.8-0.2c-0.3-0.1-0.5-0.2-0.8-0.4
			c-0.2-0.1-0.5-0.3-0.7-0.5C9.1,15.8,8.9,15.6,8.7,15.4z"/>
	</g>
	<g>
		<path class="st13" d="M19.7,51.9l-0.3-0.1L17.7,51l-0.6,0.2c0,0-0.1,0-0.1,0c0,0-0.1,0-0.1,0c0,0-0.1,0-0.1,0c0,0,0,0,0,0
			c0,0-0.1-0.1-0.1-0.1c0,0,0-0.1,0-0.1c0-0.1,0.1-0.1,0.1-0.2c0,0,0.1-0.1,0.1-0.1c0,0,0.1-0.1,0.1-0.1c0,0,0.1,0,0.2,0
			c0.2,0,0.3,0,0.5,0c0.1,0,0.3,0.1,0.4,0.1c0.1,0.1,0.3,0.1,0.4,0.2c0.1,0.1,0.3,0.1,0.4,0.2c0.1,0.1,0.3,0.1,0.4,0.2
			c0.1,0.1,0.3,0.1,0.4,0.2c0.1,0,0.3,0.1,0.4,0.1c0.2,0,0.3,0,0.5-0.1l0.5-0.2l0.6-0.5l0.4-0.8l-0.2-0.5c0,0-0.1-0.1-0.1-0.1
			c0,0-0.1-0.1-0.1-0.1c0,0,0,0-0.1-0.1c0,0,0,0-0.1-0.1l-3.1-1.2c0,0-0.1,0.1-0.1,0.1c0,0-0.1,0.1-0.1,0.1c0,0-0.1,0.1-0.1,0.1
			c0,0-0.1,0-0.1,0c0,0,0,0-0.1,0c0,0,0,0,0-0.1c0,0,0,0,0-0.1c0,0,0,0,0,0l0.6-0.9l0.5-0.4c0,0,0,0,0.1,0L19,47.2l3,1.4l0.4,0.6
			c0,0,0,0,0,0.1c0,0,0,0,0,0.1c0,0,0,0,0,0.1c0,0,0,0,0,0c0,0.1,0,0.2,0,0.3c0,0.1,0,0.2,0,0.3c0,0.1,0,0.2,0,0.3
			c0,0.1-0.1,0.2-0.1,0.2L22,51.4l-0.6,0.4L19.7,51.9z M22.6,52.1C22.6,52.1,22.6,52.1,22.6,52.1C22.6,52.1,22.5,52.1,22.6,52.1
			c-0.1-0.1-0.1-0.1-0.1-0.1s0,0,0,0l-0.1-0.4c0-0.1,0.1-0.1,0.1-0.1c0,0,0,0,0.1,0l0.5-0.1c0,0,0.1,0,0.1,0.1c0,0,0,0,0.1,0.1
			s0,0.1,0,0.1c0,0,0,0.1,0,0.1c0,0,0,0.1-0.1,0.1c0,0,0,0.1-0.1,0.1c0,0,0,0.1-0.1,0.1c0,0,0,0-0.1,0.1c0,0,0,0-0.1,0
			c0,0,0,0-0.1,0S22.7,52.1,22.6,52.1C22.7,52.1,22.6,52.1,22.6,52.1z"/>
	</g>
	<g>
		<path class="st13" d="M43.7,23.6C43.7,23.5,43.7,23.5,43.7,23.6c0-0.1,0-0.1,0-0.1l2,0.3c0,0,0.1,0,0.1,0.1c0,0,0,0,0,0
			c0,0,0,0,0,0c0,0,0,0,0,0s0,0,0,0s0,0,0,0c0,0,0,0,0,0c0,0,0,0,0,0.1c-0.1,0-0.1,0.1-0.1,0.1c0,0-0.1,0.1-0.1,0.1
			c0,0,0,0.1-0.1,0.1c0,0,0,0.1,0,0.2l1.6,4.8l0.6-0.1c0,0,0.1-0.1,0.1-0.1c0,0,0.1-0.1,0.1-0.1c0,0,0.1-0.1,0.1-0.1
			c0,0,0-0.1,0-0.2L46.9,25l0.5-0.4c0,0,0.1,0,0.1,0c0,0,0.1,0,0.1,0c0,0,0.1,0,0.1,0c0,0,0.1,0,0.1,0.1c0,0,0,0.1-0.1,0.1
			c0,0-0.1,0.1-0.1,0.1s0,0.1-0.1,0.1s0,0.1-0.1,0.1c0,0,0,0,0,0.1c0,0,0,0.1,0,0.1c0,0,0,0.1,0,0.1c0,0,0,0.1,0,0.1l1.2,3.7
			c-0.1,0-0.2,0-0.3,0.1c-0.1,0-0.2,0.1-0.3,0.1c-0.1,0-0.2,0.1-0.3,0.1c-0.1,0-0.2,0.1-0.3,0.1c-0.1,0-0.2,0.1-0.3,0.1
			c-0.1,0-0.2,0.1-0.3,0.1c-0.1,0-0.2,0-0.3,0c-0.1,0-0.2-0.1-0.3-0.1l-2.1-5.9L43.7,23.6z"/>
	</g>
	<g>
		<path class="st13" d="M3.9,28.4C3.9,28.3,3.8,28.3,3.9,28.4c-0.1-0.1-0.1-0.1-0.1-0.1c0,0,0,0,0,0c0,0,0,0,0,0c0,0,0-0.1,0-0.1
			c0,0,0-0.1,0-0.1c0,0,0-0.1,0.1-0.1c0,0,0,0,0.1,0c0.1,0,0.1,0,0.1,0c0,0,0.1,0,0.1,0c0,0,0.1,0,0.1,0c0,0,0.1,0,0.1,0l0.5-0.4
			c0-0.1,0-0.1,0.1-0.2c0-0.1,0-0.1,0-0.2c0-0.1,0-0.1,0-0.2c0,0,0-0.1-0.1-0.1l-1.2-0.8c0,0-0.1,0-0.1,0c0,0-0.1,0-0.1,0
			c0,0-0.1,0-0.1,0c0,0-0.1,0-0.1,0c0,0-0.1,0-0.1,0c0,0,0,0-0.1,0c0,0,0,0-0.1,0c0,0,0,0,0-0.1c0,0,0-0.1,0-0.1c0,0,0-0.1,0-0.1
			c0,0,0-0.1,0-0.1c0,0,0-0.1,0-0.1l1.1-1.3c0,0,0.1,0,0.1,0c0,0,0.1,0,0.1,0c0,0,0.1,0,0.1,0c0,0,0.1,0,0.1,0c0,0,0,0.1,0,0.1
			c0,0,0,0.1,0.1,0.1c0,0-0.1,0.1-0.1,0.1c0,0-0.1,0.1-0.1,0.1c0,0,0,0.1-0.1,0.1c0,0,0,0.1,0,0.1L5,25.6c0,0.1,0.1,0.1,0.1,0.2
			c0,0,0.1,0.1,0.1,0.1c0.1,0,0.1,0,0.2,0c0.1,0,0.1,0,0.1,0c0,0,0-0.1,0.1-0.1c0,0,0-0.1,0-0.1c0,0,0-0.1,0-0.1c0,0,0-0.1,0-0.1
			c0,0,0-0.1-0.1-0.1c0,0,0-0.1,0-0.1c0,0,0-0.1,0-0.1c0,0,0-0.1,0-0.1c0-0.1,0-0.1,0-0.1c0,0,0-0.1,0.1-0.1c0,0,0.1,0,0.1,0
			c0,0,0.1,0,0.1,0l1.4,0.7c0,0,0,0.1-0.1,0.1c0,0-0.1,0-0.1,0c0,0,0,0-0.1,0c-0.1,0-0.1,0-0.1,0c0,0-0.1,0-0.1,0c0,0-0.1,0-0.1,0
			c0,0-0.1,0-0.1,0c0,0-0.1,0.1-0.1,0.1c0,0,0,0.1,0,0.1c0,0,0,0.1,0,0.1c0,0,0,0.1,0,0.1c0,0,0.1,0.1,0.1,0.1c0,0,0.1,0,0.1,0
			L7.5,26c0.1,0,0.1-0.1,0.2-0.1c0.1,0,0.1-0.1,0.1-0.1c0,0,0.1-0.1,0.1-0.1c0,0,0.1-0.1,0.1-0.2c0,0,0-0.1,0-0.1c0,0,0-0.1,0-0.1
			c0,0,0-0.1,0-0.1s0-0.1,0-0.1L8,24.3l-0.5-0.9L7,23l-2.5-1L4,22.4c0,0-0.1,0-0.1,0c0,0,0,0-0.1-0.1c0,0,0,0,0-0.1
			c0-0.1,0-0.1,0-0.1c0,0,0-0.1,0-0.1c0,0,0-0.1,0.1-0.1c0,0,0-0.1,0.1-0.1c0,0,0-0.1,0.1-0.1c0,0,0-0.1,0.1-0.1c0,0,0-0.1,0.1-0.1
			c0,0,0-0.1,0-0.1l0.5-0.5c0,0,0.1,0,0.1,0c0,0,0.1,0,0.1,0c0,0,0.1,0,0.1,0c0,0,0,0,0.1,0c0,0,0.1,0.1,0.1,0.1c0,0,0,0.1,0,0.1
			c0,0,0,0.1,0,0.1c0,0,0,0.1,0,0.1l0.7,0.3c0.1,0.1,0.2,0.1,0.4,0.2C6.3,21.9,6.4,22,6.6,22c0.1,0.1,0.3,0.1,0.4,0.2
			c0.1,0.1,0.3,0.1,0.4,0.2c0.1,0.1,0.2,0.1,0.4,0.2c0.1,0.1,0.2,0.1,0.3,0.2c0.1,0.1,0.2,0.2,0.3,0.3c0.1,0.1,0.2,0.2,0.2,0.3
			l0.4,1.3l-1.5,2l-0.7,0.2c-0.1,0-0.1,0.1-0.2,0.1c-0.1,0-0.1,0-0.2,0c-0.1,0-0.1,0-0.2,0C6.1,27,6,27,6,27c0,0-0.1,0-0.1,0.1
			c0,0-0.1,0.1-0.1,0.1l-0.4,1.1c0,0,0.1,0.1,0.1,0.1c0,0,0.1,0,0.1,0c0,0,0.1,0,0.1,0c0,0,0.1,0,0.1,0.1c0,0,0,0.1,0,0.1
			c0,0,0,0.1,0,0.1c0,0,0,0,0,0.1c0,0,0,0-0.1,0c0,0,0,0-0.1,0c0,0-0.1,0-0.1,0c0,0,0,0-0.1,0c0,0,0,0,0,0L3.9,28.4z"/>
	</g>
</g>
</svg>
